<svg xmlns="http://www.w3.org/2000/svg" viewBox="0 0 256 256" fill="rgb(140,140,140)">
  <path d="M24.342 65.261H8.063a1.009 1.009 0 1 1 0-2.018h16.279a1.009 1.009 0 1 1 0 2.018zm.428-7.887H1.009a1.009 1.009 0 1 1 0-2.018H24.77a1.01 1.01 0 0 1 0 2.018zm-10.12-7.887H1.009a1.009 1.009 0 1 1 0-2.018H14.65a1.01 1.01 0 0 1 0 2.018zm0-7.887H8.063a1.01 1.01 0 0 1 0-2.018h6.587a1.01 1.01 0 0 1 0 2.018zm30.333 10.824H25.049a4.294 4.294 0 0 1-4.288-4.289V37.088a4.293 4.293 0 0 1 4.288-4.288h15.646a4.293 4.293 0 0 1 4.288 4.288v15.336zM25.049 34.796a2.296 2.296 0 0 0-2.293 2.293v11.046a2.296 2.296 0 0 0 2.293 2.294h17.939v-13.34a2.296 2.296 0 0 0-2.293-2.293H25.049zm52.825 11.842h-.539a4.973 4.973 0 0 1-4.967-4.966 4.973 4.973 0 0 1 4.967-4.967h.539c1.204 0 2.185.98 2.185 2.185v5.563c0 1.204-.98 2.185-2.185 2.185zm-.539-7.937a2.975 2.975 0 0 0-2.971 2.971 2.975 2.975 0 0 0 2.971 2.971h.539a.19.19 0 0 0 .189-.189V38.89a.19.19 0 0 0-.189-.189h-.539zm-4.63 31.421a.996.996 0 0 1-.927-.631 9.53 9.53 0 0 1 .074-7.251 9.521 9.521 0 0 1 5.217-5.153 9.524 9.524 0 0 1 7.334.045 9.567 9.567 0 0 1 5.401 5.923.996.996 0 0 1-1.246 1.256c-5.6-1.734-11.778.473-15.022 5.364a.994.994 0 0 1-.831.447zm7.985-11.744c-2.961 0-5.779 1.743-6.999 4.639a7.54 7.54 0 0 0-.537 3.89c3.47-3.918 8.779-5.82 13.943-4.981a7.557 7.557 0 0 0-3.471-2.953 7.542 7.542 0 0 0-2.936-.595zM58.685 31.156c-4.865 0-9.446-6.178-9.446-10.966 0-2.383 1.227-6.382 9.446-6.382 4.783 0 8.674 3.891 8.674 8.674s-3.891 8.674-8.674 8.674zm0-15.353c-4.944 0-7.45 1.476-7.45 4.386 0 3.706 3.853 8.971 7.45 8.971 3.682 0 6.679-2.996 6.679-6.678s-2.997-6.679-6.679-6.679z" style="stroke:none;stroke-width:1;stroke-dasharray:none;stroke-linecap:butt;stroke-linejoin:miter;stroke-miterlimit:10;" transform="matrix(2.81 0 0 2.81 1.407 1.407)"/>
  <path d="m59.367 31.173-1.889-6.443a2.677 2.677 0 0 1 .635-2.622 2.687 2.687 0 0 1 2.588-.765l6.693 1.607-.146.913a8.672 8.672 0 0 1-6.997 7.149l-.884.161zm.695-7.911a.704.704 0 0 0-.503.221.692.692 0 0 0-.166.685l1.366 4.661a6.68 6.68 0 0 0 4.31-4.385l-4.834-1.161a.784.784 0 0 0-.173-.021zm10.813 18.246c-.231 0-.463-.05-.681-.151-.781-.362-1.72-.57-2.876-.639a.997.997 0 0 1-.938-.996v-3.441c0-.551.446-.998.998-.998h2.058a3.04 3.04 0 0 1 3.037 3.037v1.593a1.597 1.597 0 0 1-1.598 1.595zm-2.499-2.693c.773.1 1.468.267 2.102.501v-.995c0-.574-.468-1.041-1.042-1.041h-1.06v1.535z" style="stroke:none;stroke-width:1;stroke-dasharray:none;stroke-linecap:butt;stroke-linejoin:miter;stroke-miterlimit:10;" transform="matrix(2.81 0 0 2.81 1.407 1.407)"/>
  <path d="M54.901 46.866a.996.996 0 0 1-.438-.101 6.708 6.708 0 0 0-2.965-.682h-7.513a.998.998 0 0 1-.998-.998V40.77c0-6.643 5.405-12.057 12.048-12.068 3.748 0 6.846 2.985 7.86 5.793.171.472.613.788 1.101.788h3.381c.552 0 .998.447.998.998v3.649a3.064 3.064 0 0 1-3.061 3.061h-4.468a6.184 6.184 0 0 1-2.837-.686c-1.424 1.229-2.134 2.42-2.112 3.543a.997.997 0 0 1-.996 1.018zm-9.918-2.779h6.515c.892 0 1.759.131 2.593.389.33-1.151 1.095-2.284 2.286-3.386a6.194 6.194 0 0 1-1.743-4.312.998.998 0 1 1 1.996 0 4.223 4.223 0 0 0 4.217 4.218h4.468c.588 0 1.065-.478 1.065-1.065V37.28h-2.383a3.182 3.182 0 0 1-2.978-2.107c-.67-1.858-2.97-4.475-5.981-4.475-5.544.009-10.054 4.528-10.054 10.072v3.317z" style="stroke:none;stroke-width:1;stroke-dasharray:none;stroke-linecap:butt;stroke-linejoin:miter;stroke-miterlimit:10;" transform="matrix(2.81 0 0 2.81 1.407 1.407)"/>
  <path d="M59.272 61.939H54.95a3.66 3.66 0 0 1-3.655-3.655v-2.541a3.323 3.323 0 0 0-3.32-3.319h-3.989a.998.998 0 0 1-.998-.998v-6.341c0-.551.447-.998.998-.998h7.513c4.837 0 8.772 3.935 8.772 8.771v8.083a.998.998 0 0 1-.999.998zM44.983 50.428h2.991a5.32 5.32 0 0 1 5.315 5.315v2.541a1.66 1.66 0 0 0 1.659 1.659h3.325v-7.085a6.784 6.784 0 0 0-6.776-6.776h-6.515v4.346zM43.232 72.36a4.892 4.892 0 0 1-4.886-4.887c0-.357.045-.723.139-1.121l1.942.458a2.936 2.936 0 0 0-.086.663c0 1.594 1.297 2.891 2.891 2.891s2.891-1.297 2.891-2.891c0-.201-.028-.417-.086-.662l1.941-.46c.095.397.14.764.14 1.122a4.892 4.892 0 0 1-4.886 4.887z" style="stroke:none;stroke-width:1;stroke-dasharray:none;stroke-linecap:butt;stroke-linejoin:miter;stroke-miterlimit:10;" transform="matrix(2.81 0 0 2.81 1.407 1.407)"/>
  <path d="M43.232 76.192c-4.807 0-8.719-3.911-8.719-8.719 0-.34.024-.674.062-1.006l1.983.228c-.03.255-.049.514-.049.778 0 3.708 3.016 6.724 6.723 6.724s6.723-3.016 6.723-6.724c0-.263-.019-.521-.049-.777l1.982-.23c.039.331.062.666.062 1.007.001 4.808-3.911 8.719-8.718 8.719zm38.049 0c-4.593 0-8.411-3.593-8.692-8.179l1.992-.123a6.725 6.725 0 0 0 6.7 6.306 6.731 6.731 0 0 0 6.724-6.724 6.678 6.678 0 0 0-1.228-3.864l1.631-1.15A8.673 8.673 0 0 1 90 67.473c0 4.808-3.911 8.719-8.719 8.719z" style="stroke:none;stroke-width:1;stroke-dasharray:none;stroke-linecap:butt;stroke-linejoin:miter;stroke-miterlimit:10;" transform="matrix(2.81 0 0 2.81 1.407 1.407)"/>
  <path d="M81.281 72.36c-2.694 0-4.886-2.192-4.886-4.887s2.191-4.886 4.886-4.886 4.887 2.191 4.887 4.886-2.193 4.887-4.887 4.887zm0-7.777a2.894 2.894 0 0 0-2.89 2.89 2.894 2.894 0 0 0 2.89 2.891 2.894 2.894 0 0 0 2.891-2.891 2.894 2.894 0 0 0-2.891-2.89z" style="stroke:none;stroke-width:1;stroke-dasharray:none;stroke-linecap:butt;stroke-linejoin:miter;stroke-miterlimit:10;" transform="matrix(2.81 0 0 2.81 1.407 1.407)"/>
  <path d="M73.202 67.579h-40.58a3.493 3.493 0 0 1-3.273-4.712l1.929-5.185c1.615-4.339 5.811-7.255 10.441-7.255h6.257a5.32 5.32 0 0 1 5.315 5.315v2.541a1.66 1.66 0 0 0 1.659 1.659h12.403c.575 0 1.114-.254 1.477-.699a1.903 1.903 0 0 0 .395-1.611l-3.402-16.07 1.953-.413 3.402 16.07a3.888 3.888 0 0 1-.805 3.292 3.895 3.895 0 0 1-3.02 1.427H54.95a3.66 3.66 0 0 1-3.655-3.655v-2.541a3.323 3.323 0 0 0-3.32-3.319h-6.257a9.184 9.184 0 0 0-8.571 5.955l-1.929 5.185a1.48 1.48 0 0 0 .174 1.377c.284.409.732.643 1.229.643H71.11a9.425 9.425 0 0 1 .741-3.342c1.415-3.355 4.617-5.577 8.157-5.829l-9.4-16.486 1.734-.988 11.263 19.755-1.98-.249a7.601 7.601 0 0 0-7.935 4.574 7.464 7.464 0 0 0-.569 3.49l.081 1.071z" style="stroke:none;stroke-width:1;stroke-dasharray:none;stroke-linecap:butt;stroke-linejoin:miter;stroke-miterlimit:10;" transform="matrix(2.81 0 0 2.81 1.407 1.407)"/>
</svg>

